<?xml version="1.0" encoding="UTF-8" standalone="no"?>
<svg
   xmlns:dc="http://purl.org/dc/elements/1.1/"
   xmlns:cc="http://creativecommons.org/ns#"
   xmlns:rdf="http://www.w3.org/1999/02/22-rdf-syntax-ns#"
   xmlns:svg="http://www.w3.org/2000/svg"
   xmlns="http://www.w3.org/2000/svg"
   xmlns:sodipodi="http://sodipodi.sourceforge.net/DTD/sodipodi-0.dtd"
   xmlns:inkscape="http://www.inkscape.org/namespaces/inkscape"
   width="500"
   height="500"
   version="1.1"
   id="svg10"
   sodipodi:docname="dareboost-logo.svg"
   inkscape:version="0.92.3 (2405546, 2018-03-11)">
  <metadata
     id="metadata16">
    <rdf:RDF>
      <cc:Work
         rdf:about="">
        <dc:format>image/svg+xml</dc:format>
        <dc:type
           rdf:resource="http://purl.org/dc/dcmitype/StillImage" />
      </cc:Work>
    </rdf:RDF>
  </metadata>
  <defs
     id="defs14" />
  <sodipodi:namedview
     pagecolor="#ffffff"
     bordercolor="#666666"
     borderopacity="1"
     objecttolerance="10"
     gridtolerance="10"
     guidetolerance="10"
     inkscape:pageopacity="0"
     inkscape:pageshadow="2"
     inkscape:window-width="1366"
     inkscape:window-height="713"
     id="namedview12"
     showgrid="false"
     inkscape:zoom="0.472"
     inkscape:cx="-37.076271"
     inkscape:cy="250"
     inkscape:window-x="0"
     inkscape:window-y="27"
     inkscape:window-maximized="1"
     inkscape:current-layer="svg10" />
  <g
     id="g23"
     transform="translate(-7.3978538,303.37995)">
    <g
       style="fill:#2c3e50"
       transform="matrix(3.3871003,0,0,3.3871003,-17.659423,-225.10868)"
       id="db-rocket">
      <path
         inkscape:connector-curvature="0"
         id="path2"
         d="m 105.9,29.4 c -2.8,2.3 -5.4,4.5 -7.9,6.6 -3.7,0.4 -8.3,1 -12.4,1.9 -4.5,1 -11.7,3.3 -11.7,3.3 l -16.1,9.4 0.7,0.8 0.7,0.8 1.1,-0.4 c 0,0 2.3,-0.9 8.1,0.8 3.1,0.9 5.7,3.6 7.2,4.6 -1.1,1.1 -4.4,7.8 -4.4,7.8 l -0.9,0.7 0.7,0.8 0.7,0.8 0.9,-0.7 c 0,0 7.1,-2 8.4,-2.9 0.6,1.7 2.8,4.7 3.1,7.9 0.5,6 -0.8,8.1 -0.8,8.1 l -0.6,1 0.7,0.8 0.7,0.8 12.4,-13.9 c 0,0 3.6,-6.6 5.5,-10.8 1.7,-3.9 3.2,-8.2 4.3,-11.8 2.5,-2 5.2,-4.1 8,-6.5 C 136.2,21.3 143,7 143,7.1 c 0.1,0.3 -15.5,4.5 -37.1,22.3 z" />
    </g>
    <g
       style="fill:#13a7c7"
       transform="matrix(3.3871003,0,0,3.3871003,-17.659423,-225.10868)"
       id="db-infinite">
      <path
         inkscape:connector-curvature="0"
         id="path5"
         d="M 42.2,24.5 C 33.1,24.4 24.4,27.8 17.8,34.1 11.3,40.5 7.6,49 7.4,58.2 7.3,67.3 10.7,76 17,82.5 c 6.4,6.6 14.9,10.3 24,10.4 6,0.1 10.8,-2.4 15.5,-5.8 l 4.4,5.3 7.8,-23.8 -24.9,3.1 5,6 c -2.2,1.7 -4.8,2.5 -7.5,2.5 -5.7,-0.1 -11.1,-2.4 -15.1,-6.5 -4,-4.1 -6.2,-9.6 -6.1,-15.3 0.1,-5.7 2.4,-11.1 6.5,-15.1 4.1,-4 9.6,-6.1 15.3,-6 5.7,0.1 11.1,2.4 15.1,6.5 l 1.4,1.6 11.2,-6.4 h 0.1 L 66.2,35.1 C 59.9,28.6 51.3,24.7 42.2,24.5 Z" />
      <path
         inkscape:connector-curvature="0"
         id="path7"
         d="m 145.4,36.1 c -3.4,-3.5 -7.4,-6.2 -11.8,-7.9 0,0 0,0 0,0 -1.7,2.2 -7.5,7.9 -10.1,10.4 h -0.1 c 4.8,0.6 9.3,2.8 12.8,6.4 8.3,8.5 8,22.1 -0.5,30.4 -4.1,4 -9.6,6.1 -15.3,6 -5.7,-0.1 -11.1,-2.4 -15.1,-6.5 l -5,-5.1 v 0.1 c 0,0 -2.4,4.1 -3.4,5.7 -1.1,1.6 -4.2,4.7 -4.2,4.7 l 3.5,3.6 c 6.4,6.6 14.9,10.3 24,10.4 9.1,0.1 17.8,-3.3 24.4,-9.6 13.6,-13.3 13.9,-35.1 0.8,-48.6 z" />
    </g>
  </g>
</svg>
