<?xml version="1.0" encoding="UTF-8" standalone="no"?>
<svg
   xmlns:dc="http://purl.org/dc/elements/1.1/"
   xmlns:cc="http://creativecommons.org/ns#"
   xmlns:rdf="http://www.w3.org/1999/02/22-rdf-syntax-ns#"
   xmlns:svg="http://www.w3.org/2000/svg"
   xmlns="http://www.w3.org/2000/svg"
   xmlns:sodipodi="http://sodipodi.sourceforge.net/DTD/sodipodi-0.dtd"
   xmlns:inkscape="http://www.inkscape.org/namespaces/inkscape"
   viewBox="0 0 500 499.99999"
   version="1.1"
   id="svg10"
   sodipodi:docname="webpack-logo.svg"
   width="500"
   height="500"
   inkscape:version="0.92.3 (2405546, 2018-03-11)">
  <metadata
     id="metadata16">
    <rdf:RDF>
      <cc:Work
         rdf:about="">
        <dc:format>image/svg+xml</dc:format>
        <dc:type
           rdf:resource="http://purl.org/dc/dcmitype/StillImage" />
        <dc:title>icon</dc:title>
      </cc:Work>
    </rdf:RDF>
  </metadata>
  <defs
     id="defs14" />
  <sodipodi:namedview
     pagecolor="#ffffff"
     bordercolor="#666666"
     borderopacity="1"
     objecttolerance="10"
     gridtolerance="10"
     guidetolerance="10"
     inkscape:pageopacity="0"
     inkscape:pageshadow="2"
     inkscape:window-width="1366"
     inkscape:window-height="713"
     id="namedview12"
     showgrid="false"
     inkscape:zoom="0.26949868"
     inkscape:cx="387"
     inkscape:cy="437.85001"
     inkscape:window-x="0"
     inkscape:window-y="27"
     inkscape:window-maximized="1"
     inkscape:current-layer="svg10" />
  <title
     id="title2">icon</title>
  <path
     d="m -533.22714,-171.61738 387,218.899997 V 485.18262 l -387,218.9 -387,-218.9 V 47.282617 Z"
     id="path4"
     inkscape:connector-curvature="0"
     style="fill:#ffffff" />
  <g
     id="g20"
     transform="matrix(0.66418704,0,0,0.66418704,87.010192,442.81773)">
    <path
       style="fill:#8ed6fb"
       inkscape:connector-curvature="0"
       id="path6"
       d="m 563.89746,-86.506371 -305.10001,172.6 v -134.4 L 448.89746,-152.90637 Z m 20.9,-18.899999 v -360.9 l -111.6,64.5 v 232 z m -657.900013,18.899999 305.100003,172.6 v -134.4 L 41.797447,-152.90637 Z m -20.9,-18.899999 v -360.9 l 111.6,64.5 v 232 z m 13.1,-384.3 312.900003,-177 v 129.9 l -200.500003,110.3 -1.6,0.9 z m 652.600013,0 -312.90001,-177 v 129.9 l 200.50001,110.2 1.6,0.9 z" />
    <path
       style="fill:#1c78c0"
       inkscape:connector-curvature="0"
       id="path8"
       d="M 231.99745,-78.906371 44.397447,-182.10637 v -204.3 l 187.600003,108.3 z m 26.8,0 187.60001,-103.099999 v -204.4 l -187.60001,108.3 z m -13.4,-206.999999 z m -188.300003,-124.1 188.300003,-103.5 188.30001,103.5 -188.30001,108.7 z" />
  </g>
</svg>
