<?xml version="1.0" encoding="UTF-8" standalone="no"?>
<svg
   xmlns:dc="http://purl.org/dc/elements/1.1/"
   xmlns:cc="http://creativecommons.org/ns#"
   xmlns:rdf="http://www.w3.org/1999/02/22-rdf-syntax-ns#"
   xmlns:svg="http://www.w3.org/2000/svg"
   xmlns="http://www.w3.org/2000/svg"
   xmlns:sodipodi="http://sodipodi.sourceforge.net/DTD/sodipodi-0.dtd"
   xmlns:inkscape="http://www.inkscape.org/namespaces/inkscape"
   width="60"
   height="60"
   version="1.1"
   id="svg20"
   sodipodi:docname="zeplin-logo.svg"
   inkscape:version="0.92.3 (2405546, 2018-03-11)">
  <metadata
     id="metadata26">
    <rdf:RDF>
      <cc:Work
         rdf:about="">
        <dc:format>image/svg+xml</dc:format>
        <dc:type
           rdf:resource="http://purl.org/dc/dcmitype/StillImage" />
        <dc:title></dc:title>
      </cc:Work>
    </rdf:RDF>
  </metadata>
  <defs
     id="defs24" />
  <sodipodi:namedview
     pagecolor="#ffffff"
     bordercolor="#666666"
     borderopacity="1"
     objecttolerance="10"
     gridtolerance="10"
     guidetolerance="10"
     inkscape:pageopacity="0"
     inkscape:pageshadow="2"
     inkscape:window-width="1366"
     inkscape:window-height="713"
     id="namedview22"
     showgrid="false"
     inkscape:zoom="4.9166667"
     inkscape:cx="30"
     inkscape:cy="24"
     inkscape:window-x="0"
     inkscape:window-y="27"
     inkscape:window-maximized="1"
     inkscape:current-layer="svg20" />
  <g
     id="g18"
     style="fill:none;fill-rule:evenodd"
     transform="translate(0,6.0034949)">
    <path
       d="M 9.225,33.084 6.086,34.231 5.918,43.568 16.783,39.6 C 13.056,38.348 10.335,36.146 9.225,33.085"
       id="path2"
       inkscape:connector-curvature="0"
       style="fill:#fdbd39" />
    <path
       d="m 10.868,23.208 -10.891,3.978 6.11,7.045 3.138,-1.147 C 8.118,30.032 8.801,26.583 10.868,23.208"
       id="path4"
       inkscape:connector-curvature="0"
       style="fill:#f69833" />
    <path
       d="M 29.195,9.734 C 15.326,14.8 6.385,25.254 9.225,33.084 L 59.446,14.738 C 56.606,6.908 43.063,4.668 29.195,9.734"
       id="path6"
       inkscape:connector-curvature="0"
       style="fill:#fecf33" />
    <path
       d="M 39.477,38.088 C 53.345,33.021 62.302,22.614 59.447,14.738 L 9.224,33.084 c 2.856,7.876 16.383,10.07 30.252,5.004"
       id="path8"
       inkscape:connector-curvature="0"
       style="fill:#ee6723" />
    <path
       d="M 59.446,14.738 9.225,33.084 c 0.983,2.712 4.734,4.048 9.995,4.048 5.13,0 11.697,-1.269 18.543,-3.77 13.868,-5.066 23.625,-13.269 21.683,-18.624"
       id="path10"
       inkscape:connector-curvature="0"
       style="fill:#f69833" />
    <path
       d="m 49.45,10.69 c -5.129,0 -11.696,1.269 -18.542,3.77 C 17.04,19.526 7.283,27.728 9.225,33.084 L 59.446,14.738 C 58.463,12.026 54.713,10.69 49.451,10.69"
       id="path12"
       inkscape:connector-curvature="0"
       style="fill:#fdbd39" />
    <path
       d="m 46.677,44.063 c -1.478,0 -3.657,-1.335 -6.48,-3.967 C 36.86,36.982 33.036,32.421 29.43,27.252 25.825,22.085 22.862,16.918 21.088,12.704 19.155,8.112 18.88,5.289 20.269,4.312 A 1.859,1.859 0 0 1 21.361,3.99 c 1.13,0 3.332,0.841 7.403,4.85 l 0.09,0.087 -0.013,0.125 C 28.813,9.34 28.788,9.631 28.765,9.916 L 28.72,10.482 28.32,10.08 C 23.933,5.66 22.002,5.183 21.375,5.183 c -0.179,0 -0.321,0.036 -0.423,0.108 -0.603,0.423 -0.642,2.497 1.232,6.948 1.743,4.139 4.662,9.227 8.22,14.328 3.56,5.102 7.325,9.596 10.604,12.654 3.535,3.298 5.128,3.654 5.65,3.654 0.18,0 0.325,-0.038 0.434,-0.115 0.635,-0.446 0.636,-2.668 -1.454,-7.46 l -0.096,-0.219 0.21,-0.115 c 0.21,-0.115 0.414,-0.228 0.604,-0.336 l 0.252,-0.143 0.116,0.265 c 1.481,3.395 2.866,7.71 1.05,8.987 a 1.868,1.868 0 0 1 -1.097,0.324 z m 0,-0.524 v 0.262 z"
       id="path14"
       inkscape:connector-curvature="0"
       style="fill:#ee6723" />
    <path
       d="m 39.813,37.945 -0.02,0.26 c -0.351,4.339 -1.275,9.554 -3.682,9.766 a 1.684,1.684 0 0 1 -0.148,0.006 c -1.636,0 -3.183,-2.343 -4.598,-6.963 -1.34,-4.372 -2.38,-10.24 -2.927,-16.527 -0.548,-6.284 -0.54,-12.246 0.023,-16.785 0.613,-4.947 1.781,-7.53 3.471,-7.679 0.05,-0.004 0.102,-0.007 0.153,-0.007 1.186,0 2.974,1.344 4.804,7.6 l -1.195,0.23 C 35.083,5.756 34.417,4.056 33.756,2.886 33.144,1.806 32.55,1.211 32.082,1.211 c -0.016,0 -0.031,0 -0.047,0.002 -0.732,0.064 -1.799,1.841 -2.393,6.636 -0.553,4.458 -0.56,10.33 -0.02,16.534 0.542,6.205 1.564,11.987 2.88,16.28 0.589,1.922 1.235,3.507 1.869,4.582 0.584,0.992 1.149,1.538 1.591,1.538 0.015,0 0.03,0 0.046,-0.002 0.7,-0.061 2.021,-1.91 2.577,-8.415 l 1.228,-0.421"
       id="path16"
       inkscape:connector-curvature="0"
       style="fill:#ee6723" />
  </g>
</svg>
